<svg width="40" height="56" viewBox="0 0 40 56" fill="none" xmlns="http://www.w3.org/2000/svg">
<g clip-path="url(#clip0_363_438)">
<path d="M40 14V49C40 49.9661 39.8397 50.8685 39.5192 51.707C39.1987 52.5456 38.758 53.2839 38.1971 53.9219C37.6362 54.5599 36.9792 55.0612 36.226 55.4258C35.4728 55.7904 34.6795 55.9818 33.8462 56H6.15385C5.30449 56 4.51122 55.8177 3.77404 55.4531C3.03686 55.0885 2.38782 54.5872 1.82692 53.9492C1.26603 53.3112 0.825321 52.5729 0.504808 51.7344C0.184295 50.8958 0.0160256 49.9844 0 49V14H6.15385V10.5C6.15385 9.0599 6.39423 7.70182 6.875 6.42578C7.35577 5.14974 8.02083 4.03776 8.87019 3.08984C9.71955 2.14193 10.6971 1.39453 11.8029 0.847656C12.9087 0.300781 14.1026 0.0182292 15.3846 0C17.0513 0 18.5978 0.473958 20.024 1.42188C21.4503 0.473958 22.9808 0 24.6154 0C25.8814 0 27.0753 0.273438 28.1971 0.820312C29.3189 1.36719 30.2965 2.1237 31.1298 3.08984C31.9631 4.05599 32.6202 5.16797 33.101 6.42578C33.5817 7.68359 33.8301 9.04167 33.8462 10.5V14H40ZM30.7692 10.5C30.7692 9.55208 30.609 8.64974 30.2885 7.79297C29.9679 6.9362 29.5272 6.19792 28.9663 5.57812C28.4054 4.95833 27.7484 4.45703 26.9952 4.07422C26.242 3.69141 25.4487 3.5 24.6154 3.5C23.8942 3.5 23.2131 3.63672 22.5721 3.91016C23.0369 4.56641 23.4054 5.21354 23.6779 5.85156C23.9503 6.48958 24.1506 7.1276 24.2788 7.76562C24.4071 8.40365 24.4952 9.05078 24.5433 9.70703C24.5913 10.3633 24.6154 11.0651 24.6154 11.8125V14H30.7692V10.5ZM9.23077 14H21.5385V10.5C21.5385 9.55208 21.3782 8.64974 21.0577 7.79297C20.7372 6.9362 20.2965 6.19792 19.7356 5.57812C19.1747 4.95833 18.5176 4.45703 17.7644 4.07422C17.0112 3.69141 16.2179 3.5 15.3846 3.5C14.5353 3.5 13.742 3.68229 13.0048 4.04688C12.2676 4.41146 11.6186 4.91276 11.0577 5.55078C10.4968 6.1888 10.0561 6.9362 9.73558 7.79297C9.41506 8.64974 9.24679 9.55208 9.23077 10.5V14ZM28.5096 52.5C27.9647 51.4062 27.6923 50.2396 27.6923 49V17.5H3.07692V49C3.07692 49.4922 3.15705 49.9479 3.31731 50.3672C3.47756 50.7865 3.69391 51.151 3.96635 51.4609C4.23878 51.7708 4.56731 52.026 4.95192 52.2266C5.33654 52.4271 5.73718 52.5182 6.15385 52.5H28.5096ZM36.9231 17.5H30.7692V49C30.7692 49.4922 30.8494 49.9479 31.0096 50.3672C31.1699 50.7865 31.3862 51.151 31.6587 51.4609C31.9311 51.7708 32.2596 52.026 32.6442 52.2266C33.0288 52.4271 33.4295 52.5182 33.8462 52.5C34.2788 52.5 34.6795 52.4089 35.0481 52.2266C35.4167 52.0443 35.7372 51.7982 36.0096 51.4883C36.2821 51.1784 36.5064 50.8047 36.6827 50.3672C36.859 49.9297 36.9391 49.474 36.9231 49V17.5Z" fill="#F9C81D"/>
</g>
<defs>
<clipPath id="clip0_363_438">
<rect width="40" height="56" fill="white"/>
</clipPath>
</defs>
</svg>
